# xmcd
#
# Track frame offsets: 
#        150
#        14378
#        30152
#        45147
#        65010
#        83303
#        97870
#        108519
#        141159
#        173938
#
# Disc length: 2492 seconds
#
# Revision: 0
# Processed by: cddbd v1.5.2PL0 Copyright (c) Steve Scherf et al.
# Submitted via: ExactAudioCopy v0.99pb5
#
DISCID=6a09ba0a
DTITLE=Sow - Dog
DYEAR=2010
DGENRE=Industrial
TTITLE0=Slap
TTITLE1=Crybaby
TTITLE2=Blue Sheets
TTITLE3=The Kidnapping of Anna Wildsmith
TTITLE4=Pornostar
TTITLE5=Lip
TTITLE6=More Candy
TTITLE7=My House
TTITLE8=Kali
TTITLE9=Like It Should Be
EXTD=
EXTT0=
EXTT1=
EXTT2=
EXTT3=
EXTT4=
EXTT5=
EXTT6=
EXTT7=
EXTT8=
EXTT9=
PLAYORDER=
